<svg width="16" height="16" viewBox="0 0 16 16" fill="none" xmlns="http://www.w3.org/2000/svg">
<path d="M8 14C11.3137 14 14 11.3137 14 8C14 4.68629 11.3137 2 8 2C4.68629 2 2 4.68629 2 8C2 11.3137 4.68629 14 8 14Z" stroke="#C4C4C4" stroke-linecap="round" stroke-linejoin="round"/>
<path d="M9.86667 6C9.7459 5.79051 9.57043 5.6178 9.35905 5.50037C9.14768 5.38293 8.90834 5.3252 8.66667 5.33333H7.33333C6.97971 5.33333 6.64057 5.47381 6.39052 5.72386C6.14048 5.9739 6 6.31304 6 6.66667C6 7.02029 6.14048 7.35943 6.39052 7.60947C6.64057 7.85952 6.97971 8 7.33333 8H8.66667C9.02029 8 9.35943 8.14047 9.60948 8.39052C9.85952 8.64057 10 8.97971 10 9.33333C10 9.68695 9.85952 10.0261 9.60948 10.2761C9.35943 10.5262 9.02029 10.6667 8.66667 10.6667H7.33333C7.09166 10.6748 6.85232 10.6171 6.64095 10.4996C6.42957 10.3822 6.2541 10.2095 6.13333 10" stroke="#C4C4C4" stroke-linecap="round" stroke-linejoin="round"/>
<path d="M8 10.6667V12M8 4V5.33333V4Z" stroke="#C4C4C4" stroke-linecap="round" stroke-linejoin="round"/>
</svg>
