<svg width="95" height="37" viewBox="0 0 95 37" fill="none" xmlns="http://www.w3.org/2000/svg">
<path opacity="0.8" d="M24.616 25.68H24.904V26H14.696V25.68H14.984C15.4533 25.68 15.7947 25.5413 16.008 25.264C16.2427 24.9653 16.36 24.688 16.36 24.432C16.36 24.176 16.3067 23.92 16.2 23.664L14.632 19.728H7.144L5.48 23.664C5.37333 23.9413 5.32 24.208 5.32 24.464C5.32 24.6987 5.43733 24.9653 5.672 25.264C5.90667 25.5413 6.25867 25.68 6.728 25.68H6.984V26H0.136V25.68H0.424C0.914667 25.68 1.40533 25.5307 1.896 25.232C2.38667 24.9333 2.792 24.4853 3.112 23.888L10.504 7.152C11.5067 5.04 12.04 3.64267 12.104 2.96H12.392L21.896 23.824C22.216 24.4427 22.6213 24.912 23.112 25.232C23.6027 25.5307 24.104 25.68 24.616 25.68ZM7.688 18.384H14.088L10.984 10.512L7.688 18.384ZM48.2263 16.4C48.2263 19.3653 47.2983 21.712 45.4423 23.44C43.6076 25.1467 41.1116 26 37.9543 26H27.2663V25.68H27.6823C28.1943 25.68 28.6209 25.5093 28.9623 25.168C29.3036 24.8267 29.4849 24.4213 29.5063 23.952V8.848C29.4849 8.336 29.2929 7.92 28.9303 7.6C28.5889 7.28 28.1623 7.12 27.6503 7.12H27.2663V6.8H37.9543C40.0449 6.8 41.8583 7.184 43.3943 7.952C44.9516 8.72 46.1463 9.82933 46.9783 11.28C47.8103 12.7307 48.2263 14.4373 48.2263 16.4ZM31.5863 7.76V25.04H37.9543C40.4076 25.04 42.3489 24.272 43.7783 22.736C45.2076 21.1787 45.9223 19.0667 45.9223 16.4C45.9223 13.7333 45.2076 11.632 43.7783 10.096C42.3489 8.53867 40.4076 7.76 37.9543 7.76H31.5863ZM53.158 25.68C53.67 25.68 54.0967 25.52 54.438 25.2C54.8007 24.8587 54.9927 24.4533 55.014 23.984V8.784C55.014 8.31467 54.8327 7.92 54.47 7.6C54.1073 7.28 53.67 7.12 53.158 7.12H52.71V6.8H62.054C62.9287 6.8 63.6967 6.736 64.358 6.608C65.0193 6.48 65.446 6.37333 65.638 6.288V9.936L65.286 9.904V9.424C65.286 8.976 65.1367 8.592 64.838 8.272C64.5393 7.952 64.1553 7.792 63.686 7.792H57.03V15.92H62.502C62.9287 15.92 63.2487 15.792 63.462 15.536C63.6967 15.28 63.814 14.96 63.814 14.576V14.16H64.166V18.64H63.814V18.224C63.814 17.6267 63.59 17.2213 63.142 17.008C62.9713 16.944 62.79 16.9013 62.598 16.88H57.03V25.008H62.054C63.0353 25.008 63.8567 24.8373 64.518 24.496C65.2007 24.1547 65.7127 23.7493 66.054 23.28C66.4167 22.8107 66.7793 22.192 67.142 21.424H67.462L65.702 26H52.71V25.68H53.158ZM93.2828 7.12C92.8134 7.12 92.4081 7.28 92.0668 7.6C91.7254 7.89867 91.5441 8.272 91.5228 8.72V22.352C91.5228 23.5893 91.5974 24.7627 91.7468 25.872L91.8108 26.448H91.5228L74.8828 10.672V24.016C74.8828 24.4853 75.0534 24.88 75.3948 25.2C75.7361 25.52 76.1521 25.68 76.6428 25.68H77.1868V26H71.1388V25.68H71.6828C72.1734 25.68 72.5894 25.52 72.9308 25.2C73.2721 24.88 73.4428 24.4853 73.4428 24.016V10.32C73.4428 9.01867 73.3681 7.856 73.2188 6.832L73.1548 6.32L73.5068 6.352L90.1148 22V8.72C90.0721 8.272 89.8801 7.89867 89.5388 7.6C89.1974 7.28 88.7921 7.12 88.3228 7.12H87.7788V6.8H93.8268V7.12H93.2828Z" fill="#BBBBBB"/>
<path opacity="0.8" d="M20.922 34.166L20.874 34.148C20.782 34.336 20.648 34.488 20.472 34.604C20.3 34.72 20.11 34.778 19.902 34.778C19.794 34.778 19.694 34.762 19.602 34.73C19.51 34.698 19.43 34.652 19.362 34.592C19.294 34.532 19.24 34.458 19.2 34.37C19.16 34.282 19.14 34.182 19.14 34.07V31.04C19.14 30.912 19.186 30.81 19.278 30.734C19.374 30.654 19.48 30.604 19.596 30.584C19.608 30.58 19.612 30.572 19.608 30.56C19.608 30.544 19.602 30.536 19.59 30.536C19.474 30.544 19.356 30.552 19.236 30.56C19.12 30.568 19.002 30.572 18.882 30.572C18.626 30.572 18.376 30.566 18.132 30.554V30.602C18.26 30.606 18.368 30.648 18.456 30.728C18.548 30.804 18.594 30.91 18.594 31.046V34.352C18.594 34.408 18.584 34.47 18.564 34.538C18.548 34.602 18.522 34.662 18.486 34.718C18.454 34.774 18.412 34.822 18.36 34.862C18.312 34.902 18.258 34.924 18.198 34.928C18.186 34.928 18.18 34.936 18.18 34.952C18.18 34.968 18.186 34.976 18.198 34.976C18.246 34.972 18.3 34.97 18.36 34.97C18.424 34.97 18.482 34.968 18.534 34.964C18.862 34.952 19.192 34.946 19.524 34.946C19.928 34.946 20.334 34.964 20.742 35C20.75 35 20.758 34.996 20.766 34.988C20.77 34.98 20.774 34.974 20.778 34.97C20.782 34.962 20.784 34.958 20.784 34.958C20.784 34.946 20.782 34.938 20.778 34.934C20.826 34.83 20.858 34.722 20.874 34.61C20.89 34.494 20.902 34.378 20.91 34.262C20.91 34.246 20.91 34.232 20.91 34.22C20.914 34.204 20.918 34.186 20.922 34.166ZM23.7887 33.77L23.7407 33.764C23.6967 33.88 23.6467 33.972 23.5907 34.04C23.5347 34.108 23.4687 34.162 23.3927 34.202C23.3207 34.242 23.2387 34.268 23.1467 34.28C23.0547 34.292 22.9527 34.298 22.8407 34.298H22.0967C22.0727 34.298 22.0507 34.296 22.0307 34.292C22.2067 34.172 22.3887 34.022 22.5767 33.842C22.7647 33.658 22.9367 33.46 23.0927 33.248C23.2487 33.036 23.3767 32.816 23.4767 32.588C23.5767 32.356 23.6267 32.13 23.6267 31.91C23.6267 31.726 23.5887 31.576 23.5127 31.46C23.4367 31.34 23.3367 31.248 23.2127 31.184C23.0927 31.116 22.9567 31.07 22.8047 31.046C22.6567 31.022 22.5087 31.01 22.3607 31.01C22.2407 31.01 22.1247 31.026 22.0127 31.058C21.9007 31.09 21.7947 31.128 21.6947 31.172C21.6867 31.172 21.6827 31.18 21.6827 31.196C21.6787 31.228 21.6747 31.258 21.6707 31.286C21.6707 31.314 21.6707 31.344 21.6707 31.376C21.6707 31.468 21.6747 31.558 21.6827 31.646C21.6947 31.734 21.7147 31.822 21.7427 31.91C21.7467 31.922 21.7547 31.928 21.7667 31.928C21.7827 31.924 21.7907 31.916 21.7907 31.904C21.7907 31.812 21.8047 31.726 21.8327 31.646C21.8607 31.562 21.8987 31.488 21.9467 31.424C21.9987 31.36 22.0627 31.31 22.1387 31.274C22.2147 31.238 22.3007 31.22 22.3967 31.22C22.5087 31.22 22.6127 31.244 22.7087 31.292C22.8087 31.336 22.8927 31.398 22.9607 31.478C23.0327 31.554 23.0887 31.642 23.1287 31.742C23.1687 31.842 23.1887 31.948 23.1887 32.06C23.1887 32.22 23.1507 32.384 23.0747 32.552C23.0027 32.72 22.9067 32.886 22.7867 33.05C22.6707 33.214 22.5407 33.378 22.3967 33.542C22.2567 33.702 22.1187 33.856 21.9827 34.004C21.8907 34.104 21.8027 34.202 21.7187 34.298C21.6347 34.394 21.5587 34.484 21.4907 34.568C21.4747 34.592 21.4807 34.604 21.5087 34.604H23.4947C23.5467 34.604 23.5907 34.568 23.6267 34.496C23.6667 34.424 23.6987 34.342 23.7227 34.25C23.7467 34.154 23.7627 34.06 23.7707 33.968C23.7827 33.876 23.7887 33.81 23.7887 33.77ZM28.7678 34.22L28.7258 34.214C28.6818 34.398 28.5898 34.54 28.4498 34.64C28.3138 34.74 28.1518 34.79 27.9638 34.79C27.8918 34.79 27.8178 34.782 27.7418 34.766C27.6658 34.75 27.5918 34.726 27.5198 34.694C27.4518 34.662 27.3878 34.622 27.3278 34.574C27.2678 34.526 27.2178 34.468 27.1778 34.4V32.732H27.4238C27.4638 32.732 27.5238 32.732 27.6038 32.732C27.6878 32.732 27.7718 32.736 27.8558 32.744C27.9438 32.748 28.0238 32.758 28.0958 32.774C28.1718 32.79 28.2218 32.812 28.2458 32.84C28.2778 32.872 28.2998 32.904 28.3118 32.936C28.3238 32.968 28.3338 33 28.3418 33.032C28.3498 33.064 28.3598 33.096 28.3718 33.128C28.3838 33.156 28.3998 33.18 28.4198 33.2C28.4278 33.208 28.4358 33.21 28.4438 33.206C28.4558 33.202 28.4618 33.194 28.4618 33.182C28.4698 33.106 28.4778 33.032 28.4858 32.96C28.4978 32.884 28.5098 32.806 28.5218 32.726C28.5298 32.666 28.5378 32.604 28.5458 32.54C28.5538 32.476 28.5618 32.412 28.5698 32.348C28.5698 32.324 28.5598 32.316 28.5398 32.324C28.5078 32.332 28.4758 32.342 28.4438 32.354C28.4118 32.366 28.3798 32.38 28.3478 32.396C28.3038 32.416 28.2598 32.436 28.2158 32.456C28.1758 32.472 28.1418 32.48 28.1138 32.48H27.1718V30.782H27.8138C27.9938 30.782 28.1418 30.814 28.2578 30.878C28.3738 30.938 28.4398 31.066 28.4558 31.262C28.4558 31.274 28.4618 31.282 28.4738 31.286C28.4898 31.286 28.4998 31.28 28.5038 31.268C28.5078 31.248 28.5118 31.232 28.5158 31.22C28.5198 31.204 28.5238 31.186 28.5278 31.166C28.5518 31.062 28.5738 30.954 28.5938 30.842C28.6178 30.73 28.6358 30.618 28.6478 30.506C28.6478 30.478 28.6358 30.472 28.6118 30.488C28.5878 30.5 28.5398 30.51 28.4678 30.518C28.3998 30.526 28.3158 30.532 28.2158 30.536C28.1198 30.54 28.0098 30.544 27.8858 30.548C27.7658 30.548 27.6418 30.548 27.5138 30.548C27.3458 30.548 27.1698 30.548 26.9858 30.548C26.8018 30.544 26.6438 30.54 26.5118 30.536H26.1458C26.1378 30.536 26.1318 30.54 26.1278 30.548C26.1238 30.556 26.1258 30.564 26.1338 30.572C26.1778 30.604 26.2178 30.628 26.2538 30.644C26.2938 30.656 26.3338 30.666 26.3738 30.674C26.4098 30.682 26.4418 30.692 26.4698 30.704C26.5018 30.712 26.5298 30.726 26.5538 30.746C26.5778 30.766 26.5958 30.794 26.6078 30.83C26.6238 30.862 26.6318 30.908 26.6318 30.968V34.358C26.6318 34.43 26.6258 34.502 26.6138 34.574C26.6058 34.642 26.5878 34.704 26.5598 34.76C26.5318 34.812 26.4918 34.856 26.4398 34.892C26.3878 34.924 26.3178 34.942 26.2298 34.946V34.994C26.3578 34.986 26.4858 34.982 26.6138 34.982C26.7418 34.982 26.8698 34.982 26.9978 34.982C27.1258 34.982 27.2518 34.984 27.3758 34.988C27.4998 34.988 27.6258 34.988 27.7538 34.988C27.8818 34.992 28.0098 34.994 28.1378 34.994C28.2658 34.994 28.3938 34.994 28.5218 34.994L28.6118 34.976C28.6238 34.964 28.6298 34.96 28.6298 34.964C28.6458 34.964 28.6538 34.956 28.6538 34.94L28.6718 34.796V34.802C28.6878 34.706 28.7018 34.61 28.7138 34.514C28.7298 34.414 28.7478 34.316 28.7678 34.22ZM31.65 33.818C31.65 33.67 31.622 33.534 31.566 33.41C31.514 33.286 31.444 33.17 31.356 33.062C31.268 32.954 31.168 32.852 31.056 32.756C30.944 32.656 30.832 32.558 30.72 32.462C30.616 32.378 30.514 32.294 30.414 32.21C30.318 32.122 30.232 32.034 30.156 31.946C30.084 31.854 30.024 31.762 29.976 31.67C29.932 31.574 29.91 31.472 29.91 31.364C29.91 31.26 29.928 31.164 29.964 31.076C30.004 30.988 30.056 30.914 30.12 30.854C30.188 30.79 30.266 30.74 30.354 30.704C30.446 30.668 30.544 30.65 30.648 30.65C30.748 30.65 30.838 30.67 30.918 30.71C31.002 30.746 31.074 30.796 31.134 30.86C31.198 30.92 31.25 30.992 31.29 31.076C31.334 31.16 31.366 31.25 31.386 31.346C31.39 31.358 31.398 31.364 31.41 31.364C31.426 31.36 31.434 31.352 31.434 31.34C31.434 31.332 31.434 31.326 31.434 31.322C31.438 31.314 31.44 31.306 31.44 31.298C31.46 31.17 31.476 31.042 31.488 30.914C31.504 30.786 31.518 30.658 31.53 30.53C31.53 30.514 31.524 30.506 31.512 30.506C31.328 30.454 31.132 30.428 30.924 30.428C30.772 30.428 30.606 30.448 30.426 30.488C30.25 30.524 30.086 30.584 29.934 30.668C29.782 30.752 29.654 30.86 29.55 30.992C29.446 31.124 29.394 31.282 29.394 31.466C29.394 31.586 29.422 31.706 29.478 31.826C29.534 31.946 29.606 32.064 29.694 32.18C29.782 32.296 29.882 32.41 29.994 32.522C30.106 32.63 30.218 32.738 30.33 32.846C30.438 32.946 30.544 33.048 30.648 33.152C30.752 33.256 30.844 33.36 30.924 33.464C31.008 33.568 31.074 33.674 31.122 33.782C31.174 33.886 31.2 33.988 31.2 34.088C31.2 34.196 31.172 34.296 31.116 34.388C31.064 34.476 30.996 34.552 30.912 34.616C30.828 34.676 30.734 34.724 30.63 34.76C30.526 34.792 30.424 34.808 30.324 34.808C30.204 34.808 30.094 34.792 29.994 34.76C29.894 34.724 29.806 34.674 29.73 34.61C29.654 34.546 29.594 34.466 29.55 34.37C29.51 34.274 29.49 34.164 29.49 34.04V33.974C29.49 33.962 29.482 33.956 29.466 33.956C29.454 33.952 29.446 33.956 29.442 33.968C29.434 34 29.426 34.034 29.418 34.07C29.414 34.102 29.408 34.134 29.4 34.166C29.384 34.226 29.368 34.288 29.352 34.352C29.34 34.416 29.334 34.484 29.334 34.556C29.334 34.656 29.356 34.74 29.4 34.808C29.448 34.872 29.508 34.926 29.58 34.97C29.652 35.01 29.732 35.038 29.82 35.054C29.908 35.074 29.994 35.084 30.078 35.084C30.246 35.084 30.422 35.054 30.606 34.994C30.794 34.934 30.964 34.848 31.116 34.736C31.272 34.624 31.4 34.492 31.5 34.34C31.6 34.184 31.65 34.01 31.65 33.818ZM34.5281 33.818C34.5281 33.67 34.5001 33.534 34.4441 33.41C34.3921 33.286 34.3221 33.17 34.2341 33.062C34.1461 32.954 34.0461 32.852 33.9341 32.756C33.8221 32.656 33.7101 32.558 33.5981 32.462C33.4941 32.378 33.3921 32.294 33.2921 32.21C33.1961 32.122 33.1101 32.034 33.0341 31.946C32.9621 31.854 32.9021 31.762 32.8541 31.67C32.8101 31.574 32.7881 31.472 32.7881 31.364C32.7881 31.26 32.8061 31.164 32.8421 31.076C32.8821 30.988 32.9341 30.914 32.9981 30.854C33.0661 30.79 33.1441 30.74 33.2321 30.704C33.3241 30.668 33.4221 30.65 33.5261 30.65C33.6261 30.65 33.7161 30.67 33.7961 30.71C33.8801 30.746 33.9521 30.796 34.0121 30.86C34.0761 30.92 34.1281 30.992 34.1681 31.076C34.2121 31.16 34.2441 31.25 34.2641 31.346C34.2681 31.358 34.2761 31.364 34.2881 31.364C34.3041 31.36 34.3121 31.352 34.3121 31.34C34.3121 31.332 34.3121 31.326 34.3121 31.322C34.3161 31.314 34.3181 31.306 34.3181 31.298C34.3381 31.17 34.3541 31.042 34.3661 30.914C34.3821 30.786 34.3961 30.658 34.4081 30.53C34.4081 30.514 34.4021 30.506 34.3901 30.506C34.2061 30.454 34.0101 30.428 33.8021 30.428C33.6501 30.428 33.4841 30.448 33.3041 30.488C33.1281 30.524 32.9641 30.584 32.8121 30.668C32.6601 30.752 32.5321 30.86 32.4281 30.992C32.3241 31.124 32.2721 31.282 32.2721 31.466C32.2721 31.586 32.3001 31.706 32.3561 31.826C32.4121 31.946 32.4841 32.064 32.5721 32.18C32.6601 32.296 32.7601 32.41 32.8721 32.522C32.9841 32.63 33.0961 32.738 33.2081 32.846C33.3161 32.946 33.4221 33.048 33.5261 33.152C33.6301 33.256 33.7221 33.36 33.8021 33.464C33.8861 33.568 33.9521 33.674 34.0001 33.782C34.0521 33.886 34.0781 33.988 34.0781 34.088C34.0781 34.196 34.0501 34.296 33.9941 34.388C33.9421 34.476 33.8741 34.552 33.7901 34.616C33.7061 34.676 33.6121 34.724 33.5081 34.76C33.4041 34.792 33.3021 34.808 33.2021 34.808C33.0821 34.808 32.9721 34.792 32.8721 34.76C32.7721 34.724 32.6841 34.674 32.6081 34.61C32.5321 34.546 32.4721 34.466 32.4281 34.37C32.3881 34.274 32.3681 34.164 32.3681 34.04V33.974C32.3681 33.962 32.3601 33.956 32.3441 33.956C32.3321 33.952 32.3241 33.956 32.3201 33.968C32.3121 34 32.3041 34.034 32.2961 34.07C32.2921 34.102 32.2861 34.134 32.2781 34.166C32.2621 34.226 32.2461 34.288 32.2301 34.352C32.2181 34.416 32.2121 34.484 32.2121 34.556C32.2121 34.656 32.2341 34.74 32.2781 34.808C32.3261 34.872 32.3861 34.926 32.4581 34.97C32.5301 35.01 32.6101 35.038 32.6981 35.054C32.7861 35.074 32.8721 35.084 32.9561 35.084C33.1241 35.084 33.3001 35.054 33.4841 34.994C33.6721 34.934 33.8421 34.848 33.9941 34.736C34.1501 34.624 34.2781 34.492 34.3781 34.34C34.4781 34.184 34.5281 34.01 34.5281 33.818ZM37.7362 34.22L37.6942 34.214C37.6502 34.398 37.5582 34.54 37.4182 34.64C37.2822 34.74 37.1202 34.79 36.9322 34.79C36.8602 34.79 36.7862 34.782 36.7102 34.766C36.6342 34.75 36.5602 34.726 36.4882 34.694C36.4202 34.662 36.3562 34.622 36.2962 34.574C36.2362 34.526 36.1862 34.468 36.1462 34.4V32.732H36.3922C36.4322 32.732 36.4922 32.732 36.5722 32.732C36.6562 32.732 36.7402 32.736 36.8242 32.744C36.9122 32.748 36.9922 32.758 37.0642 32.774C37.1402 32.79 37.1902 32.812 37.2142 32.84C37.2462 32.872 37.2682 32.904 37.2802 32.936C37.2922 32.968 37.3022 33 37.3102 33.032C37.3182 33.064 37.3282 33.096 37.3402 33.128C37.3522 33.156 37.3682 33.18 37.3882 33.2C37.3962 33.208 37.4042 33.21 37.4122 33.206C37.4242 33.202 37.4302 33.194 37.4302 33.182C37.4382 33.106 37.4462 33.032 37.4542 32.96C37.4662 32.884 37.4782 32.806 37.4902 32.726C37.4982 32.666 37.5062 32.604 37.5142 32.54C37.5222 32.476 37.5302 32.412 37.5382 32.348C37.5382 32.324 37.5282 32.316 37.5082 32.324C37.4762 32.332 37.4442 32.342 37.4122 32.354C37.3802 32.366 37.3482 32.38 37.3162 32.396C37.2722 32.416 37.2282 32.436 37.1842 32.456C37.1442 32.472 37.1102 32.48 37.0822 32.48H36.1402V30.782H36.7822C36.9622 30.782 37.1102 30.814 37.2262 30.878C37.3422 30.938 37.4082 31.066 37.4242 31.262C37.4242 31.274 37.4302 31.282 37.4422 31.286C37.4582 31.286 37.4682 31.28 37.4722 31.268C37.4762 31.248 37.4802 31.232 37.4842 31.22C37.4882 31.204 37.4922 31.186 37.4962 31.166C37.5202 31.062 37.5422 30.954 37.5622 30.842C37.5862 30.73 37.6042 30.618 37.6162 30.506C37.6162 30.478 37.6042 30.472 37.5802 30.488C37.5562 30.5 37.5082 30.51 37.4362 30.518C37.3682 30.526 37.2842 30.532 37.1842 30.536C37.0882 30.54 36.9782 30.544 36.8542 30.548C36.7342 30.548 36.6102 30.548 36.4822 30.548C36.3142 30.548 36.1382 30.548 35.9542 30.548C35.7702 30.544 35.6122 30.54 35.4802 30.536H35.1142C35.1062 30.536 35.1002 30.54 35.0962 30.548C35.0922 30.556 35.0942 30.564 35.1022 30.572C35.1462 30.604 35.1862 30.628 35.2222 30.644C35.2622 30.656 35.3022 30.666 35.3422 30.674C35.3782 30.682 35.4102 30.692 35.4382 30.704C35.4702 30.712 35.4982 30.726 35.5222 30.746C35.5462 30.766 35.5642 30.794 35.5762 30.83C35.5922 30.862 35.6002 30.908 35.6002 30.968V34.358C35.6002 34.43 35.5942 34.502 35.5822 34.574C35.5742 34.642 35.5562 34.704 35.5282 34.76C35.5002 34.812 35.4602 34.856 35.4082 34.892C35.3562 34.924 35.2862 34.942 35.1982 34.946V34.994C35.3262 34.986 35.4542 34.982 35.5822 34.982C35.7102 34.982 35.8382 34.982 35.9662 34.982C36.0942 34.982 36.2202 34.984 36.3442 34.988C36.4682 34.988 36.5942 34.988 36.7222 34.988C36.8502 34.992 36.9782 34.994 37.1062 34.994C37.2342 34.994 37.3622 34.994 37.4902 34.994L37.5802 34.976C37.5922 34.964 37.5982 34.96 37.5982 34.964C37.6142 34.964 37.6222 34.956 37.6222 34.94L37.6402 34.796V34.802C37.6562 34.706 37.6702 34.61 37.6822 34.514C37.6982 34.414 37.7162 34.316 37.7362 34.22ZM43.0543 30.608L43.0483 30.56C43.0323 30.56 43.0083 30.56 42.9763 30.56C42.9443 30.556 42.9183 30.554 42.8983 30.554C42.8583 30.546 42.8163 30.546 42.7723 30.554C42.7283 30.558 42.6863 30.562 42.6463 30.566L42.4363 30.584C42.3203 30.592 42.2043 30.59 42.0883 30.578C41.9723 30.562 41.8563 30.548 41.7403 30.536C41.7283 30.532 41.7183 30.536 41.7103 30.548C41.7063 30.556 41.7083 30.564 41.7163 30.572C41.7443 30.596 41.7763 30.612 41.8123 30.62C41.8483 30.624 41.8843 30.63 41.9203 30.638C41.9603 30.646 42.0003 30.654 42.0403 30.662C42.0803 30.67 42.1163 30.69 42.1483 30.722C42.1843 30.75 42.2123 30.794 42.2323 30.854C42.2523 30.91 42.2623 30.988 42.2623 31.088C42.2623 31.588 42.2683 32.086 42.2803 32.582C42.2923 33.082 42.2983 33.58 42.2983 34.076V34.124C41.7343 33.488 41.1723 32.87 40.6123 32.27C40.0523 31.666 39.4763 31.06 38.8843 30.452C38.8763 30.444 38.8643 30.444 38.8483 30.452C38.8283 30.468 38.8123 30.528 38.8003 30.632C38.7923 30.732 38.7843 30.862 38.7763 31.022C38.7723 31.182 38.7683 31.364 38.7643 31.568C38.7643 31.772 38.7643 31.984 38.7643 32.204C38.7643 32.528 38.7643 32.846 38.7643 33.158C38.7683 33.47 38.7723 33.736 38.7763 33.956C38.7803 34.06 38.7823 34.15 38.7823 34.226C38.7823 34.302 38.7823 34.358 38.7823 34.394C38.7823 34.466 38.7743 34.526 38.7583 34.574C38.7463 34.618 38.7283 34.656 38.7043 34.688C38.6803 34.716 38.6523 34.74 38.6203 34.76C38.5883 34.776 38.5543 34.794 38.5183 34.814C38.4863 34.834 38.4543 34.854 38.4223 34.874C38.3903 34.894 38.3543 34.92 38.3143 34.952C38.3063 34.96 38.3043 34.97 38.3083 34.982C38.3163 34.994 38.3243 34.998 38.3323 34.994C38.4363 34.978 38.5403 34.964 38.6443 34.952C38.7483 34.94 38.8503 34.934 38.9503 34.934C39.0263 34.934 39.1003 34.938 39.1723 34.946C39.2483 34.95 39.3223 34.956 39.3943 34.964C39.4503 34.972 39.5063 34.978 39.5623 34.982C39.6183 34.986 39.6743 34.99 39.7303 34.994C39.7423 34.994 39.7483 34.99 39.7483 34.982C39.7523 34.97 39.7503 34.96 39.7423 34.952C39.6903 34.912 39.6403 34.886 39.5923 34.874C39.5443 34.858 39.4983 34.846 39.4543 34.838C39.4143 34.83 39.3763 34.82 39.3403 34.808C39.3083 34.796 39.2783 34.776 39.2503 34.748C39.2263 34.716 39.2063 34.672 39.1903 34.616C39.1783 34.556 39.1723 34.474 39.1723 34.37C39.1723 34.162 39.1683 33.956 39.1603 33.752C39.1523 33.548 39.1443 33.342 39.1363 33.134C39.1283 32.922 39.1203 32.714 39.1123 32.51C39.1043 32.302 39.1003 32.096 39.1003 31.892C39.1003 31.816 39.1023 31.742 39.1063 31.67C39.1143 31.598 39.1223 31.524 39.1303 31.448C39.2103 31.536 39.2803 31.618 39.3403 31.694C39.4043 31.766 39.4763 31.848 39.5563 31.94C40.0283 32.48 40.5083 33.016 40.9963 33.548C41.4843 34.08 42.0003 34.58 42.5443 35.048C42.5523 35.056 42.5603 35.056 42.5683 35.048C42.5803 35.044 42.5863 35.038 42.5863 35.03C42.6183 34.662 42.6383 34.298 42.6463 33.938C42.6583 33.574 42.6643 33.21 42.6643 32.846C42.6643 32.678 42.6643 32.514 42.6643 32.354C42.6643 32.19 42.6623 32.026 42.6583 31.862C42.6543 31.698 42.6523 31.534 42.6523 31.37C42.6523 31.206 42.6523 31.042 42.6523 30.878C42.6523 30.838 42.6623 30.804 42.6823 30.776C42.7063 30.744 42.7363 30.72 42.7723 30.704C42.8083 30.684 42.8463 30.668 42.8863 30.656C42.9303 30.644 42.9703 30.632 43.0063 30.62C43.0143 30.616 43.0223 30.614 43.0303 30.614C43.0383 30.614 43.0463 30.612 43.0543 30.608ZM47.6259 34.13C47.6259 34.058 47.6199 33.988 47.6079 33.92C47.6039 33.908 47.5959 33.902 47.5839 33.902C47.5759 33.898 47.5679 33.902 47.5599 33.914C47.4879 34.07 47.4139 34.206 47.3379 34.322C47.2659 34.434 47.1799 34.528 47.0799 34.604C46.9839 34.68 46.8719 34.738 46.7439 34.778C46.6159 34.814 46.4639 34.832 46.2879 34.832C45.9799 34.832 45.6939 34.768 45.4299 34.64C45.1699 34.512 44.9439 34.342 44.7519 34.13C44.5639 33.918 44.4159 33.674 44.3079 33.398C44.2039 33.122 44.1519 32.836 44.1519 32.54C44.1519 32.256 44.1959 31.998 44.2839 31.766C44.3759 31.534 44.5039 31.336 44.6679 31.172C44.8319 31.004 45.0299 30.876 45.2619 30.788C45.4939 30.696 45.7519 30.65 46.0359 30.65C46.2079 30.65 46.3719 30.674 46.5279 30.722C46.6839 30.766 46.8239 30.834 46.9479 30.926C47.0719 31.018 47.1739 31.132 47.2539 31.268C47.3379 31.404 47.3959 31.562 47.4279 31.742C47.4319 31.754 47.4379 31.76 47.4459 31.76C47.4579 31.76 47.4659 31.754 47.4699 31.742C47.4979 31.558 47.5219 31.376 47.5419 31.196C47.5659 31.012 47.5819 30.824 47.5899 30.632C47.5899 30.616 47.5819 30.608 47.5659 30.608C47.4659 30.6 47.3619 30.59 47.2539 30.578C47.1499 30.566 47.0459 30.552 46.9419 30.536C46.8019 30.516 46.6579 30.496 46.5099 30.476C46.3659 30.456 46.2199 30.446 46.0719 30.446C45.9399 30.446 45.7959 30.454 45.6399 30.47C45.4879 30.486 45.3359 30.514 45.1839 30.554C45.0319 30.59 44.8859 30.64 44.7459 30.704C44.6099 30.768 44.4919 30.848 44.3919 30.944C44.2679 31.064 44.1579 31.198 44.0619 31.346C43.9659 31.494 43.8839 31.65 43.8159 31.814C43.7519 31.978 43.7019 32.146 43.6659 32.318C43.6339 32.49 43.6179 32.662 43.6179 32.834C43.6179 33.166 43.6739 33.468 43.7859 33.74C43.8979 34.008 44.0539 34.24 44.2539 34.436C44.4579 34.628 44.6979 34.778 44.9739 34.886C45.2499 34.99 45.5499 35.042 45.8739 35.042C46.1379 35.042 46.3979 35.028 46.6539 35C46.9099 34.976 47.1659 34.942 47.4219 34.898C47.4339 34.898 47.4399 34.894 47.4399 34.886C47.4959 34.774 47.5399 34.652 47.5719 34.52C47.6079 34.388 47.6259 34.258 47.6259 34.13ZM50.8354 34.22L50.7934 34.214C50.7494 34.398 50.6574 34.54 50.5174 34.64C50.3814 34.74 50.2194 34.79 50.0314 34.79C49.9594 34.79 49.8854 34.782 49.8094 34.766C49.7334 34.75 49.6594 34.726 49.5874 34.694C49.5194 34.662 49.4554 34.622 49.3954 34.574C49.3354 34.526 49.2854 34.468 49.2454 34.4V32.732H49.4914C49.5314 32.732 49.5914 32.732 49.6714 32.732C49.7554 32.732 49.8394 32.736 49.9234 32.744C50.0114 32.748 50.0914 32.758 50.1634 32.774C50.2394 32.79 50.2894 32.812 50.3134 32.84C50.3454 32.872 50.3674 32.904 50.3794 32.936C50.3914 32.968 50.4014 33 50.4094 33.032C50.4174 33.064 50.4274 33.096 50.4394 33.128C50.4514 33.156 50.4674 33.18 50.4874 33.2C50.4954 33.208 50.5034 33.21 50.5114 33.206C50.5234 33.202 50.5294 33.194 50.5294 33.182C50.5374 33.106 50.5454 33.032 50.5534 32.96C50.5654 32.884 50.5774 32.806 50.5894 32.726C50.5974 32.666 50.6054 32.604 50.6134 32.54C50.6214 32.476 50.6294 32.412 50.6374 32.348C50.6374 32.324 50.6274 32.316 50.6074 32.324C50.5754 32.332 50.5434 32.342 50.5114 32.354C50.4794 32.366 50.4474 32.38 50.4154 32.396C50.3714 32.416 50.3274 32.436 50.2834 32.456C50.2434 32.472 50.2094 32.48 50.1814 32.48H49.2394V30.782H49.8814C50.0614 30.782 50.2094 30.814 50.3254 30.878C50.4414 30.938 50.5074 31.066 50.5234 31.262C50.5234 31.274 50.5294 31.282 50.5414 31.286C50.5574 31.286 50.5674 31.28 50.5714 31.268C50.5754 31.248 50.5794 31.232 50.5834 31.22C50.5874 31.204 50.5914 31.186 50.5954 31.166C50.6194 31.062 50.6414 30.954 50.6614 30.842C50.6854 30.73 50.7034 30.618 50.7154 30.506C50.7154 30.478 50.7034 30.472 50.6794 30.488C50.6554 30.5 50.6074 30.51 50.5354 30.518C50.4674 30.526 50.3834 30.532 50.2834 30.536C50.1874 30.54 50.0774 30.544 49.9534 30.548C49.8334 30.548 49.7094 30.548 49.5814 30.548C49.4134 30.548 49.2374 30.548 49.0534 30.548C48.8694 30.544 48.7114 30.54 48.5794 30.536H48.2134C48.2054 30.536 48.1994 30.54 48.1954 30.548C48.1914 30.556 48.1934 30.564 48.2014 30.572C48.2454 30.604 48.2854 30.628 48.3214 30.644C48.3614 30.656 48.4014 30.666 48.4414 30.674C48.4774 30.682 48.5094 30.692 48.5374 30.704C48.5694 30.712 48.5974 30.726 48.6214 30.746C48.6454 30.766 48.6634 30.794 48.6754 30.83C48.6914 30.862 48.6994 30.908 48.6994 30.968V34.358C48.6994 34.43 48.6934 34.502 48.6814 34.574C48.6734 34.642 48.6554 34.704 48.6274 34.76C48.5994 34.812 48.5594 34.856 48.5074 34.892C48.4554 34.924 48.3854 34.942 48.2974 34.946V34.994C48.4254 34.986 48.5534 34.982 48.6814 34.982C48.8094 34.982 48.9374 34.982 49.0654 34.982C49.1934 34.982 49.3194 34.984 49.4434 34.988C49.5674 34.988 49.6934 34.988 49.8214 34.988C49.9494 34.992 50.0774 34.994 50.2054 34.994C50.3334 34.994 50.4614 34.994 50.5894 34.994L50.6794 34.976C50.6914 34.964 50.6974 34.96 50.6974 34.964C50.7134 34.964 50.7214 34.956 50.7214 34.94L50.7394 34.796V34.802C50.7554 34.706 50.7694 34.61 50.7814 34.514C50.7974 34.414 50.8154 34.316 50.8354 34.22ZM56.0464 31.592C56.0464 31.388 56.0184 31.22 55.9624 31.088C55.9064 30.956 55.8264 30.85 55.7224 30.77C55.6224 30.69 55.4984 30.634 55.3504 30.602C55.2064 30.57 55.0444 30.554 54.8644 30.554H54.1204C53.9684 30.554 53.8144 30.552 53.6584 30.548C53.5024 30.544 53.3464 30.538 53.1904 30.53C53.1784 30.53 53.1704 30.536 53.1664 30.548C53.1664 30.56 53.1724 30.568 53.1844 30.572C53.2364 30.584 53.2904 30.604 53.3464 30.632C53.4024 30.656 53.4524 30.688 53.4964 30.728C53.5404 30.764 53.5764 30.808 53.6044 30.86C53.6364 30.908 53.6524 30.962 53.6524 31.022V34.352C53.6524 34.448 53.6504 34.53 53.6464 34.598C53.6424 34.662 53.6284 34.718 53.6044 34.766C53.5804 34.81 53.5404 34.846 53.4844 34.874C53.4284 34.902 53.3504 34.924 53.2504 34.94C53.2384 34.944 53.2324 34.954 53.2324 34.97C53.2364 34.982 53.2444 34.988 53.2564 34.988C53.3484 34.992 53.4404 34.994 53.5324 34.994C53.6244 34.994 53.7164 34.994 53.8084 34.994H54.7264C54.7384 34.994 54.7444 34.986 54.7444 34.97C54.7444 34.954 54.7384 34.946 54.7264 34.946C54.5344 34.938 54.3984 34.894 54.3184 34.814C54.2384 34.73 54.1984 34.594 54.1984 34.406V30.824C54.3504 30.76 54.4944 30.728 54.6304 30.728C54.7784 30.728 54.9104 30.762 55.0264 30.83C55.1464 30.898 55.2464 30.988 55.3264 31.1C55.4104 31.208 55.4724 31.33 55.5124 31.466C55.5564 31.602 55.5784 31.738 55.5784 31.874C55.5784 32.026 55.5544 32.166 55.5064 32.294C55.4624 32.422 55.3964 32.532 55.3084 32.624C55.2244 32.716 55.1204 32.788 54.9964 32.84C54.8724 32.888 54.7324 32.912 54.5764 32.912C54.5524 32.912 54.5284 32.912 54.5044 32.912C54.4844 32.912 54.4624 32.91 54.4384 32.906C54.4264 32.902 54.4184 32.908 54.4144 32.924C54.4144 32.94 54.4204 32.95 54.4324 32.954C54.5524 32.986 54.6684 33.002 54.7804 33.002C54.9644 33.002 55.1324 32.962 55.2844 32.882C55.4404 32.798 55.5744 32.69 55.6864 32.558C55.7984 32.426 55.8864 32.276 55.9504 32.108C56.0144 31.94 56.0464 31.768 56.0464 31.592ZM61.0649 34.946L61.0529 34.898C60.8809 34.918 60.7149 34.89 60.5549 34.814C60.3989 34.734 60.2469 34.626 60.0989 34.49C59.9549 34.354 59.8169 34.2 59.6849 34.028C59.5529 33.856 59.4269 33.688 59.3069 33.524C59.2269 33.416 59.1489 33.31 59.0729 33.206C58.9969 33.102 58.9309 33.018 58.8749 32.954C58.9629 32.87 59.0489 32.778 59.1329 32.678C59.2209 32.574 59.2969 32.464 59.3609 32.348C59.4289 32.232 59.4829 32.112 59.5229 31.988C59.5629 31.86 59.5829 31.732 59.5829 31.604C59.5829 31.408 59.5449 31.242 59.4689 31.106C59.3929 30.97 59.2909 30.86 59.1629 30.776C59.0389 30.688 58.8969 30.624 58.7369 30.584C58.5769 30.544 58.4129 30.524 58.2449 30.524C58.1769 30.524 58.1109 30.526 58.0469 30.53C57.9869 30.53 57.9229 30.532 57.8549 30.536C57.7229 30.548 57.5929 30.554 57.4649 30.554C57.3449 30.554 57.2249 30.548 57.1049 30.536C57.0489 30.532 56.9909 30.53 56.9309 30.53C56.8709 30.526 56.8109 30.524 56.7509 30.524H56.6369C56.6249 30.524 56.6169 30.53 56.6129 30.542C56.6129 30.554 56.6189 30.562 56.6309 30.566C56.7549 30.598 56.8629 30.662 56.9549 30.758C57.0509 30.854 57.0989 30.966 57.0989 31.094V34.346C57.0989 34.474 57.0589 34.594 56.9789 34.706C56.9029 34.814 56.8069 34.894 56.6909 34.946C56.6789 34.954 56.6749 34.966 56.6789 34.982C56.6829 34.994 56.6909 34.998 56.7029 34.994C56.8269 34.978 56.9489 34.966 57.0689 34.958C57.1889 34.946 57.3109 34.94 57.4349 34.94C57.5589 34.94 57.6829 34.944 57.8069 34.952C57.9309 34.96 58.0549 34.97 58.1789 34.982V34.934C58.0189 34.918 57.8889 34.854 57.7889 34.742C57.6929 34.626 57.6449 34.486 57.6449 34.322V33.164C57.6889 33.16 57.7329 33.158 57.7769 33.158C57.8209 33.158 57.8649 33.158 57.9089 33.158C58.0129 33.158 58.1169 33.166 58.2209 33.182C58.3249 33.194 58.4169 33.234 58.4969 33.302C58.6009 33.39 58.7049 33.502 58.8089 33.638C58.9169 33.774 59.0129 33.904 59.0969 34.028C59.1809 34.152 59.2709 34.278 59.3669 34.406C59.4629 34.53 59.5669 34.642 59.6789 34.742C59.7909 34.842 59.9129 34.924 60.0449 34.988C60.1769 35.052 60.3209 35.084 60.4769 35.084C60.5809 35.084 60.6809 35.072 60.7769 35.048C60.8769 35.024 60.9729 34.99 61.0649 34.946ZM59.0189 31.916C59.0189 32.204 58.9589 32.432 58.8389 32.6C58.7189 32.768 58.5069 32.852 58.2029 32.852C58.1149 32.852 58.0229 32.85 57.9269 32.846C57.8349 32.838 57.7429 32.826 57.6509 32.81V30.77C57.7149 30.746 57.7789 30.73 57.8429 30.722C57.9109 30.71 57.9789 30.704 58.0469 30.704C58.2069 30.704 58.3469 30.74 58.4669 30.812C58.5869 30.884 58.6869 30.978 58.7669 31.094C58.8509 31.21 58.9129 31.34 58.9529 31.484C58.9969 31.628 59.0189 31.772 59.0189 31.916ZM65.2951 32.906C65.2951 32.558 65.2311 32.234 65.1031 31.934C64.9791 31.63 64.8051 31.366 64.5811 31.142C64.3611 30.918 64.1011 30.742 63.8011 30.614C63.5011 30.486 63.1771 30.422 62.8291 30.422C62.8131 30.422 62.7951 30.422 62.7751 30.422C62.7591 30.422 62.7431 30.424 62.7271 30.428C62.3431 30.508 62.0191 30.612 61.7551 30.74C61.4911 30.864 61.2771 31.026 61.1131 31.226C60.9491 31.422 60.8311 31.662 60.7591 31.946C60.6871 32.23 60.6511 32.568 60.6511 32.96C60.6511 33.136 60.6851 33.31 60.7531 33.482C60.8211 33.654 60.9131 33.818 61.0291 33.974C61.1491 34.13 61.2851 34.276 61.4371 34.412C61.5931 34.548 61.7571 34.666 61.9291 34.766C62.1011 34.866 62.2771 34.944 62.4571 35C62.6371 35.056 62.8111 35.084 62.9791 35.084C63.2871 35.084 63.5811 35.03 63.8611 34.922C64.1411 34.814 64.3871 34.664 64.5991 34.472C64.8111 34.276 64.9791 34.046 65.1031 33.782C65.2311 33.514 65.2951 33.222 65.2951 32.906ZM64.7731 32.894C64.7731 33.154 64.7351 33.402 64.6591 33.638C64.5871 33.87 64.4771 34.076 64.3291 34.256C64.1851 34.432 64.0051 34.574 63.7891 34.682C63.5771 34.786 63.3331 34.838 63.0571 34.838C62.7611 34.838 62.4971 34.772 62.2651 34.64C62.0371 34.504 61.8431 34.33 61.6831 34.118C61.5271 33.906 61.4071 33.666 61.3231 33.398C61.2431 33.13 61.2031 32.862 61.2031 32.594C61.2031 32.33 61.2411 32.082 61.3171 31.85C61.3931 31.614 61.5051 31.41 61.6531 31.238C61.8011 31.062 61.9831 30.924 62.1991 30.824C62.4151 30.72 62.6631 30.668 62.9431 30.668C63.2391 30.668 63.5011 30.734 63.7291 30.866C63.9571 30.998 64.1471 31.17 64.2991 31.382C64.4551 31.594 64.5731 31.832 64.6531 32.096C64.7331 32.36 64.7731 32.626 64.7731 32.894ZM67.3253 30.626L67.3193 30.578H67.1333H66.6593H66.4133C66.3333 30.578 66.2513 30.578 66.1673 30.578C66.0873 30.574 66.0033 30.568 65.9153 30.56C65.9033 30.56 65.8953 30.566 65.8913 30.578C65.8873 30.586 65.8913 30.594 65.9033 30.602C65.9473 30.63 65.9853 30.65 66.0173 30.662C66.0533 30.674 66.0873 30.684 66.1193 30.692C66.1513 30.704 66.1833 30.718 66.2153 30.734C66.2473 30.746 66.2753 30.764 66.2993 30.788C66.3233 30.808 66.3413 30.836 66.3533 30.872C66.3693 30.908 66.3773 30.954 66.3773 31.01V34.562C66.3773 34.778 66.3613 34.968 66.3293 35.132C66.3013 35.3 66.2533 35.454 66.1853 35.594C66.1213 35.738 66.0393 35.874 65.9393 36.002C65.8393 36.134 65.7173 36.274 65.5733 36.422C65.5653 36.434 65.5653 36.446 65.5733 36.458C65.5813 36.47 65.5913 36.472 65.6033 36.464C65.7793 36.38 65.9473 36.274 66.1073 36.146C66.2673 36.022 66.4073 35.882 66.5273 35.726C66.6473 35.57 66.7433 35.398 66.8153 35.21C66.8873 35.026 66.9233 34.83 66.9233 34.622V31.004C66.9233 30.868 66.9613 30.778 67.0373 30.734C67.1133 30.686 67.2093 30.65 67.3253 30.626ZM70.5417 34.22L70.4997 34.214C70.4557 34.398 70.3637 34.54 70.2237 34.64C70.0877 34.74 69.9257 34.79 69.7377 34.79C69.6657 34.79 69.5917 34.782 69.5157 34.766C69.4397 34.75 69.3657 34.726 69.2937 34.694C69.2257 34.662 69.1617 34.622 69.1017 34.574C69.0417 34.526 68.9917 34.468 68.9517 34.4V32.732H69.1977C69.2377 32.732 69.2977 32.732 69.3777 32.732C69.4617 32.732 69.5457 32.736 69.6297 32.744C69.7177 32.748 69.7977 32.758 69.8697 32.774C69.9457 32.79 69.9957 32.812 70.0197 32.84C70.0517 32.872 70.0737 32.904 70.0857 32.936C70.0977 32.968 70.1077 33 70.1157 33.032C70.1237 33.064 70.1337 33.096 70.1457 33.128C70.1577 33.156 70.1737 33.18 70.1937 33.2C70.2017 33.208 70.2097 33.21 70.2177 33.206C70.2297 33.202 70.2357 33.194 70.2357 33.182C70.2437 33.106 70.2517 33.032 70.2597 32.96C70.2717 32.884 70.2837 32.806 70.2957 32.726C70.3037 32.666 70.3117 32.604 70.3197 32.54C70.3277 32.476 70.3357 32.412 70.3437 32.348C70.3437 32.324 70.3337 32.316 70.3137 32.324C70.2817 32.332 70.2497 32.342 70.2177 32.354C70.1857 32.366 70.1537 32.38 70.1217 32.396C70.0777 32.416 70.0337 32.436 69.9897 32.456C69.9497 32.472 69.9157 32.48 69.8877 32.48H68.9457V30.782H69.5877C69.7677 30.782 69.9157 30.814 70.0317 30.878C70.1477 30.938 70.2137 31.066 70.2297 31.262C70.2297 31.274 70.2357 31.282 70.2477 31.286C70.2637 31.286 70.2737 31.28 70.2777 31.268C70.2817 31.248 70.2857 31.232 70.2897 31.22C70.2937 31.204 70.2977 31.186 70.3017 31.166C70.3257 31.062 70.3477 30.954 70.3677 30.842C70.3917 30.73 70.4097 30.618 70.4217 30.506C70.4217 30.478 70.4097 30.472 70.3857 30.488C70.3617 30.5 70.3137 30.51 70.2417 30.518C70.1737 30.526 70.0897 30.532 69.9897 30.536C69.8937 30.54 69.7837 30.544 69.6597 30.548C69.5397 30.548 69.4157 30.548 69.2877 30.548C69.1197 30.548 68.9437 30.548 68.7597 30.548C68.5757 30.544 68.4177 30.54 68.2857 30.536H67.9197C67.9117 30.536 67.9057 30.54 67.9017 30.548C67.8977 30.556 67.8997 30.564 67.9077 30.572C67.9517 30.604 67.9917 30.628 68.0277 30.644C68.0677 30.656 68.1077 30.666 68.1477 30.674C68.1837 30.682 68.2157 30.692 68.2437 30.704C68.2757 30.712 68.3037 30.726 68.3277 30.746C68.3517 30.766 68.3697 30.794 68.3817 30.83C68.3977 30.862 68.4057 30.908 68.4057 30.968V34.358C68.4057 34.43 68.3997 34.502 68.3877 34.574C68.3797 34.642 68.3617 34.704 68.3337 34.76C68.3057 34.812 68.2657 34.856 68.2137 34.892C68.1617 34.924 68.0917 34.942 68.0037 34.946V34.994C68.1317 34.986 68.2597 34.982 68.3877 34.982C68.5157 34.982 68.6437 34.982 68.7717 34.982C68.8997 34.982 69.0257 34.984 69.1497 34.988C69.2737 34.988 69.3997 34.988 69.5277 34.988C69.6557 34.992 69.7837 34.994 69.9117 34.994C70.0397 34.994 70.1677 34.994 70.2957 34.994L70.3857 34.976C70.3977 34.964 70.4037 34.96 70.4037 34.964C70.4197 34.964 70.4277 34.956 70.4277 34.94L70.4457 34.796V34.802C70.4617 34.706 70.4757 34.61 70.4877 34.514C70.5037 34.414 70.5217 34.316 70.5417 34.22ZM75.1158 34.13C75.1158 34.058 75.1098 33.988 75.0978 33.92C75.0938 33.908 75.0858 33.902 75.0738 33.902C75.0658 33.898 75.0578 33.902 75.0498 33.914C74.9778 34.07 74.9038 34.206 74.8278 34.322C74.7558 34.434 74.6698 34.528 74.5698 34.604C74.4738 34.68 74.3618 34.738 74.2338 34.778C74.1058 34.814 73.9538 34.832 73.7778 34.832C73.4698 34.832 73.1838 34.768 72.9198 34.64C72.6598 34.512 72.4338 34.342 72.2418 34.13C72.0538 33.918 71.9058 33.674 71.7978 33.398C71.6938 33.122 71.6418 32.836 71.6418 32.54C71.6418 32.256 71.6858 31.998 71.7738 31.766C71.8658 31.534 71.9938 31.336 72.1578 31.172C72.3218 31.004 72.5198 30.876 72.7518 30.788C72.9838 30.696 73.2418 30.65 73.5258 30.65C73.6978 30.65 73.8618 30.674 74.0178 30.722C74.1738 30.766 74.3138 30.834 74.4378 30.926C74.5618 31.018 74.6638 31.132 74.7438 31.268C74.8278 31.404 74.8858 31.562 74.9178 31.742C74.9218 31.754 74.9278 31.76 74.9358 31.76C74.9478 31.76 74.9558 31.754 74.9598 31.742C74.9878 31.558 75.0118 31.376 75.0318 31.196C75.0558 31.012 75.0718 30.824 75.0798 30.632C75.0798 30.616 75.0718 30.608 75.0558 30.608C74.9558 30.6 74.8518 30.59 74.7438 30.578C74.6398 30.566 74.5358 30.552 74.4318 30.536C74.2918 30.516 74.1478 30.496 73.9998 30.476C73.8558 30.456 73.7098 30.446 73.5618 30.446C73.4298 30.446 73.2858 30.454 73.1298 30.47C72.9778 30.486 72.8258 30.514 72.6738 30.554C72.5218 30.59 72.3758 30.64 72.2358 30.704C72.0998 30.768 71.9818 30.848 71.8818 30.944C71.7578 31.064 71.6478 31.198 71.5518 31.346C71.4558 31.494 71.3738 31.65 71.3058 31.814C71.2418 31.978 71.1918 32.146 71.1558 32.318C71.1238 32.49 71.1078 32.662 71.1078 32.834C71.1078 33.166 71.1638 33.468 71.2758 33.74C71.3878 34.008 71.5438 34.24 71.7438 34.436C71.9478 34.628 72.1878 34.778 72.4638 34.886C72.7398 34.99 73.0398 35.042 73.3638 35.042C73.6278 35.042 73.8878 35.028 74.1438 35C74.3998 34.976 74.6558 34.942 74.9118 34.898C74.9238 34.898 74.9298 34.894 74.9298 34.886C74.9858 34.774 75.0298 34.652 75.0618 34.52C75.0978 34.388 75.1158 34.258 75.1158 34.13ZM79.3813 30.584V30.536C79.3813 30.52 79.3753 30.512 79.3633 30.512C79.3353 30.516 79.3073 30.52 79.2793 30.524C79.2553 30.528 79.2333 30.532 79.2133 30.536C79.1813 30.544 79.1453 30.554 79.1053 30.566C79.0693 30.574 79.0353 30.578 79.0033 30.578H76.3993C76.2953 30.578 76.2033 30.572 76.1233 30.56C76.0433 30.544 75.9613 30.51 75.8773 30.458C75.8613 30.442 75.8493 30.446 75.8413 30.47C75.8333 30.506 75.8233 30.544 75.8113 30.584C75.7993 30.62 75.7873 30.658 75.7753 30.698C75.7513 30.778 75.7293 30.856 75.7093 30.932C75.6893 31.008 75.6793 31.086 75.6793 31.166C75.6793 31.198 75.6833 31.234 75.6913 31.274C75.6913 31.286 75.6953 31.294 75.7033 31.298C75.7153 31.298 75.7253 31.292 75.7333 31.28C75.7813 31.168 75.8533 31.068 75.9493 30.98C76.0493 30.888 76.1633 30.842 76.2913 30.842H77.2813V34.388C77.2813 34.484 77.2773 34.564 77.2693 34.628C77.2653 34.688 77.2493 34.738 77.2213 34.778C77.1973 34.818 77.1573 34.85 77.1013 34.874C77.0493 34.898 76.9753 34.92 76.8793 34.94C76.8673 34.944 76.8613 34.954 76.8613 34.97C76.8653 34.982 76.8733 34.988 76.8853 34.988C76.9893 34.98 77.0913 34.974 77.1913 34.97C77.2953 34.962 77.3993 34.958 77.5033 34.958C77.6473 34.958 77.7893 34.962 77.9293 34.97C78.0733 34.978 78.2153 34.988 78.3553 35C78.3673 35 78.3733 34.994 78.3733 34.982C78.3773 34.966 78.3733 34.956 78.3613 34.952C78.2093 34.928 78.0813 34.86 77.9773 34.748C77.8773 34.636 77.8273 34.5 77.8273 34.34V30.836H78.5533C78.6413 30.836 78.7253 30.844 78.8053 30.86C78.8853 30.872 78.9573 30.896 79.0213 30.932C79.0853 30.968 79.1373 31.018 79.1773 31.082C79.2213 31.142 79.2533 31.222 79.2733 31.322C79.2773 31.334 79.2853 31.34 79.2973 31.34C79.3093 31.34 79.3173 31.334 79.3213 31.322C79.3533 31.214 79.3713 31.094 79.3753 30.962C79.3793 30.826 79.3813 30.7 79.3813 30.584Z" fill="#BBBBBB"/>
</svg>
