<svg width="9" height="12" viewBox="0 0 9 12" fill="none" xmlns="http://www.w3.org/2000/svg">
<g clip-path="url(#clip0)">
<path d="M2.00001 1.35077V0.126917C2.00001 0.0208384 2.11325 -0.037742 2.18972 0.0271714L8.81911 5.60181C8.87544 5.64897 8.92101 5.70936 8.95236 5.77837C8.98372 5.84737 9 5.92318 9 6C9 6.07682 8.98372 6.15263 8.95236 6.22163C8.92101 6.29064 8.87544 6.35103 8.81911 6.39819L2.18972 11.9728C2.11178 12.0377 2.00001 11.9792 2.00001 11.8731V10.6492C2.00001 10.5716 2.03384 10.4972 2.08972 10.4497L7.38382 6.00079C7.38382 6.00079 5.77051 4.64455 4.73677 3.77553C3.70303 2.90651 2.08972 1.55026 2.08972 1.55026C2.03384 1.50276 2.00001 1.42835 2.00001 1.35077Z" fill="url(#paint0_linear)"/>
</g>
<g clip-path="url(#clip1)">
<path d="M1.04904e-05 2.90051V2.08461C1.04904e-05 2.01389 0.080893 1.97484 0.135515 2.01811L4.87079 5.73454C4.91103 5.76598 4.94358 5.80624 4.96597 5.85224C4.98837 5.89825 5 5.94879 5 6C5 6.05121 4.98837 6.10175 4.96597 6.14776C4.94358 6.19376 4.91103 6.23402 4.87079 6.26546L0.135515 9.98189C0.0798426 10.0252 1.04904e-05 9.98611 1.04904e-05 9.91539V9.09948C1.04904e-05 9.04777 0.0241694 8.99816 0.0640855 8.96649L3.84559 6.00053C3.84559 6.00053 2.69322 5.09636 1.95484 4.51702C1.21645 3.93767 0.0640855 3.03351 0.0640855 3.03351C0.0241694 3.00184 1.04904e-05 2.95223 1.04904e-05 2.90051Z" fill="url(#paint1_linear)"/>
</g>
<defs>
<linearGradient id="paint0_linear" x1="5.49995" y1="0" x2="5.49995" y2="12" gradientUnits="userSpaceOnUse">
<stop offset="0.494792" stop-color="#AE7421"/>
<stop offset="0.494892" stop-color="#7C4E0D"/>
</linearGradient>
<linearGradient id="paint1_linear" x1="2.49996" y1="2" x2="2.49996" y2="10" gradientUnits="userSpaceOnUse">
<stop offset="0.494792" stop-color="#AE7421"/>
<stop offset="0.494892" stop-color="#7C4E0D"/>
</linearGradient>
<clipPath id="clip0">
<rect width="7" height="12" fill="white" transform="matrix(-1 0 0 1 9 0)"/>
</clipPath>
<clipPath id="clip1">
<rect width="5" height="8" fill="white" transform="matrix(-1 0 0 1 5 2)"/>
</clipPath>
</defs>
</svg>
