<svg width="9" height="12" viewBox="0 0 9 12" fill="none" xmlns="http://www.w3.org/2000/svg">
<g clip-path="url(#clip0)">
<path d="M6.99999 1.35077V0.126917C6.99999 0.0208384 6.88675 -0.037742 6.81028 0.0271714L0.180889 5.60181C0.124563 5.64897 0.0789864 5.70936 0.047635 5.77837C0.0162837 5.84737 0 5.92318 0 6C0 6.07682 0.0162837 6.15263 0.047635 6.22163C0.0789864 6.29064 0.124563 6.35103 0.180889 6.39819L6.81028 11.9728C6.88822 12.0377 6.99999 11.9792 6.99999 11.8731V10.6492C6.99999 10.5716 6.96616 10.4972 6.91028 10.4497L1.61618 6.00079C1.61618 6.00079 3.22949 4.64455 4.26323 3.77553C5.29697 2.90651 6.91028 1.55026 6.91028 1.55026C6.96616 1.50276 6.99999 1.42835 6.99999 1.35077Z" fill="url(#paint0_linear)"/>
</g>
<g clip-path="url(#clip1)">
<path d="M8.99999 2.90051V2.08461C8.99999 2.01389 8.91911 1.97484 8.86449 2.01811L4.12921 5.73454C4.08897 5.76598 4.05642 5.80624 4.03403 5.85224C4.01163 5.89825 4 5.94879 4 6C4 6.05121 4.01163 6.10175 4.03403 6.14776C4.05642 6.19376 4.08897 6.23402 4.12921 6.26546L8.86449 9.98189C8.92016 10.0252 8.99999 9.98611 8.99999 9.91539V9.09948C8.99999 9.04777 8.97583 8.99816 8.93591 8.96649L5.15441 6.00053C5.15441 6.00053 6.30678 5.09636 7.04516 4.51702C7.78355 3.93767 8.93591 3.03351 8.93591 3.03351C8.97583 3.00184 8.99999 2.95223 8.99999 2.90051Z" fill="url(#paint1_linear)"/>
</g>
<defs>
<linearGradient id="paint0_linear" x1="3.50005" y1="0" x2="3.50005" y2="12" gradientUnits="userSpaceOnUse">
<stop offset="0.494792" stop-color="#AE7421"/>
<stop offset="0.494892" stop-color="#7C4E0D"/>
</linearGradient>
<linearGradient id="paint1_linear" x1="6.50004" y1="2" x2="6.50004" y2="10" gradientUnits="userSpaceOnUse">
<stop offset="0.494792" stop-color="#AE7421"/>
<stop offset="0.494892" stop-color="#7C4E0D"/>
</linearGradient>
<clipPath id="clip0">
<rect width="7" height="12" fill="white"/>
</clipPath>
<clipPath id="clip1">
<rect width="5" height="8" fill="white" transform="translate(4 2)"/>
</clipPath>
</defs>
</svg>
