<svg width="16" height="16" viewBox="0 0 16 16" fill="none" xmlns="http://www.w3.org/2000/svg">
<path fill-rule="evenodd" clip-rule="evenodd" d="M3.214 1.072C4.813 0.752001 6.916 0.710001 8.354 2.146C8.4004 2.19252 8.43718 2.24773 8.46223 2.30847C8.48728 2.36921 8.50012 2.4343 8.5 2.5V13.5C8.50018 13.599 8.47095 13.6959 8.41602 13.7783C8.36109 13.8606 8.28294 13.9249 8.19146 13.9628C8.09999 14.0007 7.99932 14.0106 7.90221 13.9912C7.8051 13.9719 7.71593 13.9241 7.646 13.854C6.803 13.01 5.531 12.795 4.176 12.934C2.832 13.074 1.516 13.551 0.724 13.947C0.647771 13.9852 0.56304 14.0033 0.47786 13.9995C0.392679 13.9957 0.309879 13.9702 0.237329 13.9254C0.164778 13.8806 0.104888 13.818 0.0633488 13.7436C0.0218099 13.6691 2.86113e-06 13.5853 0 13.5L0 2.5C3.11334e-06 2.40722 0.0258203 2.31628 0.0745635 2.23733C0.123307 2.15839 0.193053 2.09457 0.276 2.053L0.5 2.5L0.276 2.053L0.278 2.052L0.282 2.05L0.295 2.044C0.367491 2.0079 0.440846 1.97355 0.515 1.941C1.38049 1.55341 2.28591 1.262 3.215 1.072H3.214ZM1 2.82V12.728C1.846 12.385 2.944 12.056 4.074 11.94C5.217 11.822 6.461 11.917 7.5 12.5V2.718C6.437 1.789 4.869 1.762 3.41 2.054C2.58185 2.22344 1.774 2.4802 1 2.82Z" fill="#C4C4C4"/>
<path fill-rule="evenodd" clip-rule="evenodd" d="M12.786 1.072C11.188 0.752001 9.084 0.710001 7.646 2.146C7.5996 2.19252 7.56282 2.24773 7.53777 2.30847C7.51272 2.36921 7.49988 2.4343 7.5 2.5V13.5C7.49982 13.599 7.52905 13.6959 7.58398 13.7783C7.63891 13.8606 7.71706 13.9249 7.80854 13.9628C7.90001 14.0007 8.00068 14.0106 8.09779 13.9912C8.1949 13.9719 8.28407 13.9241 8.354 13.854C9.197 13.01 10.469 12.795 11.824 12.934C13.168 13.074 14.484 13.551 15.276 13.947C15.3522 13.9852 15.437 14.0033 15.5221 13.9995C15.6073 13.9957 15.6901 13.9702 15.7627 13.9254C15.8352 13.8806 15.8951 13.818 15.9367 13.7436C15.9782 13.6691 16 13.5853 16 13.5V2.5C16 2.40722 15.9742 2.31628 15.9254 2.23733C15.8767 2.15839 15.8069 2.09457 15.724 2.053L15.5 2.5L15.724 2.053L15.722 2.052L15.718 2.05L15.705 2.044L15.658 2.021C15.3957 1.89851 15.1292 1.78511 14.859 1.681C14.1862 1.42066 13.4927 1.21695 12.786 1.072ZM15 2.82V12.728C14.154 12.385 13.056 12.056 11.926 11.94C10.783 11.822 9.539 11.917 8.5 12.5V2.718C9.563 1.789 11.131 1.762 12.59 2.054C13.4182 2.22342 14.226 2.48019 15 2.82Z" fill="#C4C4C4"/>
</svg>
